<?xml version="1.0" encoding="UTF-8" standalone="no"?>
<!-- Created with Inkscape (http://www.inkscape.org/) -->

<svg
   width="42.186592mm"
   height="79.085602mm"
   viewBox="0 0 159.44539 298.90622"
   version="1.1"
   id="svg1"
   xmlns:xlink="http://www.w3.org/1999/xlink"
   xmlns="http://www.w3.org/2000/svg"
   xmlns:svg="http://www.w3.org/2000/svg">
  <defs
     id="defs1">
    <linearGradient
       id="linearGradient20">
      <stop
         style="stop-color:#ff204e;stop-opacity:1;"
         offset="0"
         id="stop21" />
      <stop
         style="stop-color:#0000ff;stop-opacity:1;"
         offset="1"
         id="stop22" />
    </linearGradient>
    <linearGradient
       xlink:href="#linearGradient20"
       id="linearGradient22"
       x1="291.41699"
       y1="592.48218"
       x2="582.81244"
       y2="146.01389"
       gradientUnits="userSpaceOnUse" />
    <linearGradient
       xlink:href="#linearGradient20"
       id="linearGradient2"
       gradientUnits="userSpaceOnUse"
       x1="291.41699"
       y1="592.48218"
       x2="582.81244"
       y2="146.01389" />
    <linearGradient
       xlink:href="#linearGradient20"
       id="linearGradient3"
       gradientUnits="userSpaceOnUse"
       x1="291.41699"
       y1="592.48218"
       x2="582.81244"
       y2="146.01389" />
    <linearGradient
       xlink:href="#linearGradient20"
       id="linearGradient4"
       gradientUnits="userSpaceOnUse"
       x1="291.41699"
       y1="592.48218"
       x2="582.81244"
       y2="146.01389" />
    <linearGradient
       xlink:href="#linearGradient20"
       id="linearGradient5"
       gradientUnits="userSpaceOnUse"
       x1="291.41699"
       y1="592.48218"
       x2="582.81244"
       y2="146.01389" />
    <linearGradient
       xlink:href="#linearGradient20"
       id="linearGradient6"
       gradientUnits="userSpaceOnUse"
       x1="291.41699"
       y1="592.48218"
       x2="582.81244"
       y2="146.01389" />
    <linearGradient
       xlink:href="#linearGradient20"
       id="linearGradient7"
       gradientUnits="userSpaceOnUse"
       x1="291.41699"
       y1="592.48218"
       x2="582.81244"
       y2="146.01389" />
  </defs>
  <g
     id="layer1"
     transform="translate(-205.76146,-369.4511)">
    <g
       id="g4"
       transform="rotate(-13.046226,284.38181,521.00743)">
      <g
         id="g5">
        <g
           id="g3"
           transform="rotate(13.638267,327.80121,334.57768)">
          <g
             id="g19"
             style="fill:url(#linearGradient22);fill-opacity:1">
            <path
               d="m 378.55006,456.06656 -7.31901,-57.94219 h 8.53884 c 5.08265,15.04464 -2.48924,46.0733 8.28598,54.61215 9.53391,9.42446 36.69497,-2.7353 48.2834,-2.7353 8.33555,0 15.70588,-6.64128 21.80506,-13.14707 5.69256,-6.50579 8.53884,-14.33306 8.53884,-23.48183 0,-5.48926 -3.76116,-12.0967 -11.28347,-19.82233 -8.13224,-8.13224 -19.11076,-16.16282 -32.93556,-24.09175 -13.01158,-7.52232 -23.17688,-16.16282 -30.49589,-25.92151 -7.92893,-9.75868 -11.8934,-19.41571 -11.8934,-28.97109 0,-12.40166 4.77769,-23.07522 14.33307,-32.02068 9.75869,-8.94546 21.24547,-13.41819 34.46035,-13.41819 5.89587,0 13.41819,1.7281 22.56696,5.1843 7.11571,2.43967 11.99505,3.6595 14.63803,3.6595 2.84628,0 5.1843,-0.71157 7.01405,-2.13471 2.03306,-1.62645 3.35455,-3.86281 3.96447,-6.70909 h 7.01405 l 5.1843,58.24714 h -5.79422 c -5.28595,-13.8248 -12.50331,-25.00662 -21.65208,-33.54547 -8.74215,-8.13224 -18.09422,-12.19836 -28.05621,-12.19836 -7.52232,0 -14.02811,2.33802 -19.51737,7.01405 -5.48926,4.47273 -8.23389,9.75869 -8.23389,15.85787 0,6.30248 4.16777,13.62149 12.50331,21.95704 7.92893,8.33554 19.00911,16.46778 33.24052,24.39671 13.62149,8.13223 24.49836,17.07769 32.6306,26.83638 8.33554,9.96199 10.54903,27.65728 9.04264,36.68118 -2.36834,14.18732 -2.56728,17.54053 -13.84991,30.70942 -9.56984,11.32786 -26.40019,13.72846 -43.07128,13.72846 -10.97851,0 -19.41571,-1.7281 -25.31158,-5.1843 -5.48926,-3.04959 -12.35003,1.77643 -16.61946,1.77643 -2.03306,0 -1.98304,-5.7409 -3.81279,-4.52106 -1.82975,1.42314 -2.94793,3.25289 -3.35454,5.48926 h -8.84381 z"
               id="text3"
               style="font-size:326.306px;font-family:Gurajada;-inkscape-font-specification:Gurajada;fill:url(#linearGradient2);fill-opacity:1;fill-rule:evenodd;stroke-width:27.1922"
               transform="rotate(2.503189,-2019.6008,-1550.5579)"
               aria-label="S" />
            <text
               xml:space="preserve"
               style="font-style:normal;font-variant:normal;font-weight:normal;font-stretch:normal;font-size:331.888px;font-family:Gurajada;-inkscape-font-specification:Gurajada;opacity:1;fill:url(#linearGradient3);fill-opacity:1;fill-rule:evenodd;stroke-width:27.6574"
               x="250.11336"
               y="658.58716"
               id="text2"><tspan
                 id="tspan2"
                 x="250.11336"
                 y="658.58716"
                 style="font-style:normal;font-variant:normal;font-weight:normal;font-stretch:normal;font-family:Gurajada;-inkscape-font-specification:Gurajada;fill:url(#linearGradient3);fill-opacity:1;fill-rule:evenodd;stroke-width:27.6574">B</tspan></text>
            <g
               id="g2-2-3"
               transform="matrix(1.2520778,0,0,1.2520778,-79.319972,-169.21252)"
               style="fill:url(#linearGradient6);fill-opacity:1">
              <rect
                 style="opacity:1;fill:url(#linearGradient4);fill-opacity:1;fill-rule:evenodd;stroke-width:1.28059"
                 id="rect2-0-6"
                 width="9.2340946"
                 height="20.930185"
                 x="318.65598"
                 y="653.36749"
                 transform="matrix(0.99999187,-0.00403155,-0.00661018,0.99997815,0,0)" />
              <rect
                 style="fill:url(#linearGradient5);fill-opacity:1;fill-rule:evenodd;stroke-width:1.28059"
                 id="rect2-0-2-1"
                 width="9.2340946"
                 height="20.930185"
                 x="330.1434"
                 y="653.24939"
                 transform="matrix(0.99999187,-0.00403155,-0.00661018,0.99997815,0,0)" />
            </g>
            <g
               id="g2-2-3-4"
               transform="matrix(1.2520778,0,0,1.2520778,-81.937246,-361.47329)"
               style="fill:url(#linearGradient7);fill-opacity:1" />
          </g>
        </g>
      </g>
    </g>
  </g>
</svg>
